<svg width="350" height="512" viewBox="0 0 350 512" fill="none" xmlns="http://www.w3.org/2000/svg">
    <g clip-path="url(#clip0)">
        <path d="M113.595 484.331C55.1027 484.331 9.28564 378.901 9.28564 244.314C9.28564 163.363 26.3961 88.6382 55.0543 44.447C55.5432 43.6729 56.1808 43.0035 56.9303 42.4777C57.6798 41.9518 58.5262 41.5799 59.4205 41.3836C60.3147 41.1872 61.2391 41.1703 62.1399 41.3338C63.0408 41.4973 63.9002 41.838 64.6684 42.3361C65.4366 42.8342 66.0984 43.4798 66.6152 44.2356C67.1321 44.9913 67.4938 45.8421 67.6795 46.7386C67.8651 47.6352 67.871 48.5597 67.6967 49.4585C67.5224 50.3573 67.1715 51.2126 66.6642 51.9748C39.3968 94.0211 23.1235 165.916 23.1235 244.321C23.1235 366.924 64.554 470.5 113.595 470.5C162.637 470.5 204.15 366.924 204.15 244.321C204.15 121.718 162.685 18.1206 113.595 18.1206C107.727 18.1655 101.952 19.5875 96.7339 22.2719C95.0924 23.0977 93.1902 23.2375 91.4457 22.6608C89.7011 22.084 88.2571 20.8379 87.4314 19.1964C86.6056 17.555 86.4657 15.6528 87.0425 13.9083C87.6192 12.1637 88.8654 10.7197 90.5068 9.89396C97.6461 6.2442 105.543 4.32218 113.561 4.28271C172.102 4.28271 217.953 109.713 217.953 244.314C217.953 378.915 172.136 484.331 113.595 484.331Z" fill="white" />
        <path d="M-21.1715 395.049C-24.8062 395.049 -28.351 394.941 -31.8059 394.724C-33.6409 394.608 -35.3544 393.767 -36.5696 392.387C-37.7847 391.007 -38.4019 389.201 -38.2854 387.366C-38.1689 385.531 -37.3282 383.817 -35.9482 382.602C-34.5683 381.387 -32.7622 380.77 -30.9271 380.886C19.1797 384.076 90.1954 362.288 158.873 322.643C212.01 291.971 256.886 254.561 285.288 217.323C312.03 182.251 320.838 150.902 309.47 131.224C298.102 111.547 266.524 103.472 222.783 109.084C176.35 115.027 121.504 135.209 68.3247 165.874C-37.8115 227.196 -106.772 314.908 -82.2655 357.41C-79.5762 362.043 -75.8746 366.007 -71.4374 369.007C-69.9263 370.048 -68.8907 371.647 -68.5586 373.452C-68.2264 375.257 -68.6248 377.12 -69.6662 378.631C-70.7075 380.142 -72.3066 381.178 -74.1115 381.51C-75.9163 381.842 -77.7793 381.443 -79.2904 380.402C-85.4306 376.232 -90.5489 370.728 -94.2629 364.302C-123.482 313.641 -55.1088 221.205 61.4127 153.891C116.141 122.326 172.807 101.535 221.025 95.3564C271.326 88.8873 306.979 99.1826 321.453 124.298C335.928 149.414 327.037 185.392 296.324 225.73C266.863 264.379 220.506 303.069 165.819 334.668C99.4945 372.93 30.6374 395.049 -21.1715 395.049Z" fill="white" />
        <path d="M248.078 395.105C197.895 395.105 130.062 374.3 61.4059 334.661C-55.1225 267.333 -123.495 174.931 -94.249 124.298C-79.7677 99.1827 -44.1076 88.8942 6.1791 95.3565C54.3763 101.535 111.063 122.34 165.792 153.891C245.643 200.012 307.692 262.352 323.868 312.707C324.146 313.573 324.251 314.485 324.177 315.391C324.102 316.297 323.85 317.179 323.435 317.988C323.02 318.796 322.449 319.515 321.756 320.103C321.063 320.691 320.261 321.137 319.395 321.415C318.53 321.693 317.618 321.798 316.712 321.723C315.806 321.649 314.924 321.397 314.115 320.982C313.306 320.566 312.588 319.996 312 319.303C311.411 318.609 310.966 317.807 310.688 316.942C295.508 269.672 235.922 210.39 158.873 165.874C105.694 135.209 50.8477 115.027 4.41479 109.077C-39.3266 103.472 -70.9184 111.533 -82.2654 131.217C-106.786 173.679 -37.8252 261.348 68.3248 322.685C174.475 384.021 284.929 399.879 309.47 357.404C310.362 355.834 311.817 354.662 313.541 354.124C315.265 353.585 317.128 353.722 318.755 354.505C320.338 355.268 321.557 356.623 322.15 358.277C322.742 359.931 322.661 361.752 321.924 363.347L321.599 364.039C309.518 384.969 283.088 395.105 248.078 395.105Z" fill="white" />
        <path d="M75.154 60.1116C69.209 60.1129 63.397 58.3512 58.4533 55.0492C53.5096 51.7471 49.6562 47.0531 47.3805 41.5608C45.1048 36.0686 44.509 30.0248 45.6685 24.1939C46.828 18.363 49.6907 13.0069 53.8945 8.80315C58.0982 4.59936 63.4543 1.73668 69.2852 0.57719C75.1161 -0.582299 81.1599 0.013489 86.6522 2.2892C92.1444 4.56491 96.8384 8.41831 100.14 13.362C103.443 18.3057 105.204 24.1177 105.203 30.0627C105.194 38.0294 102.025 45.6671 96.3917 51.3004C90.7584 56.9336 83.1207 60.1024 75.154 60.1116ZM75.154 13.8448C71.9461 13.8434 68.8099 14.7934 66.1419 16.5746C63.474 18.3558 61.3942 20.8883 60.1657 23.8516C58.9371 26.8149 58.615 30.076 59.2399 33.2224C59.8649 36.3689 61.409 39.2593 63.6768 41.5281C65.9447 43.7969 68.8344 45.3422 71.9806 45.9685C75.1268 46.5949 78.388 46.2741 81.3519 45.0468C84.3157 43.8195 86.849 41.7408 88.6314 39.0736C90.4137 36.4065 91.3651 33.2706 91.3651 30.0627C91.3614 25.7638 89.6525 21.6418 86.6133 18.6014C83.5742 15.5609 79.453 13.8503 75.154 13.8448Z" fill="white" />
        <path d="M320.097 367.768C314.154 367.768 308.344 366.006 303.403 362.704C298.461 359.402 294.61 354.709 292.336 349.219C290.061 343.728 289.466 337.686 290.626 331.857C291.785 326.028 294.647 320.674 298.849 316.472C303.052 312.269 308.406 309.407 314.235 308.248C320.064 307.088 326.106 307.683 331.596 309.958C337.087 312.232 341.78 316.084 345.082 321.025C348.384 325.967 350.146 331.776 350.146 337.719C350.137 345.686 346.968 353.324 341.335 358.957C335.702 364.59 328.064 367.759 320.097 367.768ZM320.097 321.508C316.891 321.508 313.757 322.459 311.091 324.24C308.425 326.022 306.347 328.553 305.12 331.516C303.893 334.478 303.572 337.737 304.198 340.882C304.823 344.027 306.367 346.915 308.634 349.182C310.901 351.449 313.79 352.993 316.935 353.619C320.079 354.244 323.339 353.923 326.301 352.696C329.263 351.469 331.795 349.392 333.576 346.726C335.358 344.06 336.308 340.926 336.308 337.719C336.303 333.422 334.593 329.301 331.554 326.262C328.515 323.223 324.395 321.514 320.097 321.508Z" fill="white" />
        <path d="M113.609 301.561C102.275 301.561 91.1964 298.2 81.7729 291.903C72.3494 285.607 65.0048 276.657 60.6679 266.186C56.331 255.715 55.1966 244.193 57.4082 233.077C59.6198 221.961 65.078 211.751 73.0926 203.737C81.1072 195.724 91.3182 190.267 102.434 188.056C113.55 185.846 125.072 186.982 135.543 191.32C146.013 195.658 154.962 203.004 161.258 212.428C167.553 221.852 170.913 232.932 170.912 244.265C170.893 259.457 164.85 274.021 154.107 284.762C143.365 295.503 128.8 301.545 113.609 301.561ZM113.609 200.794C105.013 200.794 96.6098 203.343 89.4622 208.119C82.3146 212.894 76.7437 219.682 73.4537 227.624C70.1638 235.565 69.3026 244.304 70.9792 252.736C72.6557 261.167 76.7946 268.911 82.8726 274.99C88.9505 281.069 96.6945 285.209 105.125 286.887C113.556 288.565 122.295 287.705 130.238 284.417C138.18 281.128 144.969 275.558 149.745 268.411C154.522 261.264 157.072 252.862 157.074 244.265C157.054 232.746 152.467 221.704 144.32 213.561C136.172 205.417 125.129 200.836 113.609 200.822V200.794Z" fill="white" />
    </g>
    <defs>
        <clipPath id="clip0">
            <rect width="512" height="512" fill="white" transform="translate(-162)" />
        </clipPath>
    </defs>
</svg>
