<svg width="328" height="370" viewBox="0 0 328 370" fill="none" xmlns="http://www.w3.org/2000/svg">
    <path d="M178.37 51.8432C178.37 51.8432 277.215 101.292 272.293 178.344C272.39 181.015 270.843 183.474 268.393 184.541C265.942 185.609 263.089 185.069 261.198 183.179C231.806 148.232 195.375 119.874 154.285 99.9544L94.164 69.8773C53.5821 48.9594 9.04523 36.8342 -36.5398 34.2932C-39.2034 33.9247 -41.3654 31.9547 -41.9793 29.3367C-42.5932 26.7187 -41.5323 23.993 -39.3101 22.4788C19.3849 -27.6832 118.243 21.7661 118.243 21.7661L178.37 51.8432Z" fill="white" />
    <path d="M169.353 9.74324L157.324 3.73186C150.682 0.411148 142.605 3.10226 139.283 9.74324L133.265 21.766L149.806 43.4917L169.346 39.8136L175.398 27.7908C176.993 24.5964 177.251 20.8991 176.117 17.5137C174.983 14.1284 172.55 11.3328 169.353 9.74324Z" fill="white" />
    <path d="M5.23083 322.839C-4.73259 317.855 -8.76958 305.738 -3.78624 295.775L103.188 81.9068L126.104 81.6042L139.27 99.9544L32.2955 313.822C27.3115 323.786 15.1945 327.823 5.23083 322.839Z" fill="white" />
    <path d="M291.201 325.114L278.385 321.066C274.846 319.948 271.07 321.911 269.953 325.45L265.905 338.266C264.787 341.805 266.75 345.581 270.289 346.698L283.105 350.746C286.644 351.864 290.419 349.901 291.537 346.362L295.585 333.546C296.703 330.007 294.74 326.232 291.201 325.114Z" fill="white" />
    <path d="M187.823 362.845L200.639 358.797C204.178 357.679 206.141 353.904 205.023 350.365L200.975 337.549C199.858 334.01 196.082 332.047 192.543 333.165L179.727 337.212C176.188 338.33 174.225 342.105 175.343 345.645L179.391 358.461C180.509 362 184.284 363.963 187.823 362.845Z" fill="white" />
    <path d="M213.518 207.211C206.794 193.971 179.897 207.211 179.897 220.451C179.897 233.691 186.621 246.931 206.794 240.307C226.966 233.684 220.242 220.451 213.518 207.211Z" fill="white" />
    <path d="M175.297 42.7416L127.206 18.6961C123.886 17.0361 119.849 18.3818 118.189 21.7018L94.1431 69.7929C92.4831 73.1128 93.8288 77.1499 97.1488 78.8099L145.24 102.855C148.56 104.515 152.597 103.17 154.257 99.8498L178.302 51.7587C179.962 48.4387 178.617 44.4016 175.297 42.7416Z" fill="white" />
</svg>
