<svg width="351" height="467" viewBox="0 0 351 467" fill="none" xmlns="http://www.w3.org/2000/svg">
    <path d="M350.017 325.77C350.178 325.149 350.242 324.521 350.229 323.875C350.226 323.622 350.251 323.378 350.225 323.125C350.124 322.299 349.915 321.475 349.523 320.7C349.518 320.691 349.516 320.675 349.511 320.666C349.511 320.666 349.513 320.659 349.506 320.656C349.1 319.877 348.553 319.227 347.933 318.661C347.738 318.484 347.504 318.356 347.286 318.202C346.785 317.834 346.258 317.527 345.681 317.304C345.533 317.241 345.426 317.122 345.266 317.071L234.797 281.568C232.319 280.771 229.609 281.359 227.678 283.114L226.867 283.854L294.716 164.923C295.892 162.857 295.989 160.344 294.97 158.192L222.032 4.91177C221.963 4.76764 221.822 4.68407 221.75 4.55379C221.372 3.87491 220.901 3.27293 220.33 2.74561C220.265 2.68652 220.223 2.62718 220.155 2.57502C219.431 1.95277 218.625 1.41879 217.684 1.11621C216.742 0.813639 215.776 0.778073 214.832 0.864147C214.747 0.867364 214.669 0.895802 214.589 0.908168C213.817 1.00387 213.084 1.21874 212.381 1.55055C212.239 1.61187 212.074 1.60446 211.943 1.67715L63.3612 83.7632C61.281 84.9124 59.8964 87.0107 59.646 89.3819L45.5892 224.708L45.5675 224.609C45.0272 222.06 43.163 219.995 40.6939 219.193L-69.9731 183.306C-69.98 183.304 -69.9869 183.301 -69.9938 183.299C-70.1461 183.25 -70.3091 183.282 -70.4658 183.247C-71.0446 183.099 -71.6224 183.043 -72.2179 183.043C-72.5008 183.043 -72.7656 183.012 -73.0434 183.045C-73.8909 183.139 -74.7303 183.35 -75.5308 183.75C-76.3266 184.158 -76.9919 184.731 -77.5714 185.37C-77.7486 185.565 -77.8727 185.785 -78.0267 186.003C-78.3869 186.506 -78.6917 187.026 -78.9132 187.597C-78.9716 187.731 -79.0922 187.845 -79.139 187.99L-114.829 299.041C-115.63 301.533 -115.028 304.27 -113.25 306.201L-33.1436 393.046C-32.2944 393.969 -31.2224 394.649 -30.0248 395.034L10.5205 408.065C12.3619 408.657 14.3538 408.495 16.0666 407.609L42.3743 394.099L62.1197 423.036C63.0332 424.376 64.3569 425.367 65.9007 425.863L93.5908 434.762C95.1345 435.259 96.7875 435.225 98.3106 434.668L131.209 422.634L144.729 448.96C145.605 450.677 147.13 451.969 148.971 452.561L190.506 465.91C191.711 466.297 192.994 466.366 194.233 466.099L308.947 441.866C311.503 441.328 313.569 439.464 314.367 436.979L349.964 326.219C350.013 326.066 349.977 325.917 350.017 325.77ZM275.03 404.242L326.644 351.252L303.497 423.274L275.03 404.242ZM241.914 347.041L322.644 334.516L265.57 393.114L241.914 347.041ZM145.748 391.295L152.078 371.578L224.739 305.449L223.691 337.488L145.748 391.295ZM239.526 298.363L311.569 321.517L238.397 332.865L239.526 298.363ZM140.853 362.135C139.915 362.987 139.214 364.075 138.824 365.287L125.482 406.824C125.218 407.648 125.158 408.499 125.19 409.35L110.934 414.567L220.589 204.315L269.957 178.962L192.034 315.552L140.853 362.135ZM110.444 172.865L204.777 203.182L92.2047 419.042L76.186 413.894L110.444 172.865ZM76.5666 93.0786L190.874 29.924L105.476 149.371L76.5666 93.0786ZM222.499 186.989L222.69 40.1492L278.801 158.074L222.499 186.989ZM207.96 188.93L116.167 159.429L208.159 30.7515L207.96 188.93ZM71.5808 115.198L96.9344 164.567L63.568 399.352L55.0119 386.811C55.5291 386.152 55.9743 385.432 56.2415 384.625L69.6564 343.882C70.0549 342.666 70.1305 341.361 69.8617 340.106L55.3791 271.243L71.5808 115.198ZM-63.5018 295.443L-98.0342 294.311L-74.7427 221.839L-63.5018 295.443ZM-49.3381 291.914L-61.7323 210.73L-3.24469 268.242L-49.3381 291.914ZM-45.1419 206.638L27.0623 230.049L7.86769 258.761L-45.1419 206.638ZM34.8919 244.518L55.2302 341.193L49.0383 360.008L17.1138 271.104L34.8919 244.518ZM-90.7875 309.097L-58.9005 310.142L-5.38214 387.679L-23.7545 381.774L-90.7875 309.097ZM15.1045 391.758L-44.3055 305.675L4.98952 280.359L40.3328 378.801L15.1045 391.758ZM141.902 411.628L228.163 352.092L253.479 401.387L154.835 436.81L141.902 411.628ZM193.114 451.473L174.057 445.348L262.727 413.509L289.169 431.187L193.114 451.473Z" fill="white" />
</svg>
