<svg width="401" height="510" viewBox="0 0 401 510" fill="none" xmlns="http://www.w3.org/2000/svg">
    <path d="M-28.1306 238.538L-65.7643 179.387C-69.0025 180.439 -72.4133 181.031 -75.9062 181.031C-94.0368 181.031 -108.781 166.287 -108.781 148.156C-108.781 130.026 -94.0368 115.281 -75.9062 115.281C-57.7757 115.281 -43.0312 130.026 -43.0312 148.156C-43.0312 156.679 -46.253 164.651 -51.8664 170.626L-13.8629 230.344H92.2L160.703 123.788L116.93 63.6017C113.158 65.0976 109.122 65.9688 104.906 65.9688C86.7757 65.9688 72.0312 51.2243 72.0312 33.0938C72.0312 14.9632 86.7757 0.21875 104.906 0.21875C123.037 0.21875 137.781 14.9632 137.781 33.0938C137.781 40.8605 135.012 48.2656 130.261 53.994L174.84 115.281H254.011C257.685 101.137 270.44 90.625 285.719 90.625C303.849 90.625 318.594 105.369 318.594 123.5C318.594 131.932 315.413 139.847 309.841 145.822L344.894 200.354C349.595 198.521 354.575 197.469 359.688 197.469C382.347 197.469 400.781 215.903 400.781 238.562C400.781 261.222 382.347 279.656 359.688 279.656C354.567 279.656 349.578 278.604 344.886 276.78L295.672 353.337L339.445 413.523C343.217 412.027 347.253 411.156 351.469 411.156C369.599 411.156 384.344 425.901 384.344 444.031C384.344 462.162 369.599 476.906 351.469 476.906C333.338 476.906 318.594 462.162 318.594 444.031C318.594 436.265 321.363 428.859 326.114 423.131L281.535 361.844H175.144L116.051 453.762C119.322 458.02 121.344 463.222 121.344 468.688C121.344 482.281 110.281 493.344 96.6875 493.344C85.9867 493.344 76.946 486.448 73.5435 476.906H21.8886C18.0669 495.637 1.47327 509.781 -18.375 509.781C-41.0341 509.781 -59.4688 491.347 -59.4688 468.688C-59.4688 457.428 -54.8745 446.965 -47.0091 439.338L-102.108 353.625L-28.1306 238.538ZM-75.9062 131.719C-84.9715 131.719 -92.3438 139.091 -92.3438 148.156C-92.3438 157.222 -84.9715 164.594 -75.9062 164.594C-72.7174 164.594 -69.6929 163.723 -67.0629 162.005C-62.3124 158.997 -59.4688 153.819 -59.4688 148.156C-59.4688 139.091 -66.841 131.719 -75.9062 131.719ZM104.906 16.6562C95.841 16.6562 88.4688 24.0285 88.4688 33.0938C88.4688 42.159 95.841 49.5312 104.906 49.5312C108.44 49.5312 111.72 48.4546 114.629 46.2766C118.829 43.2932 121.344 38.3702 121.344 33.0938C121.344 24.0285 113.972 16.6562 104.906 16.6562ZM254.011 131.719H175.144L106.46 238.562L175.144 345.406H281.231L331.053 267.903C323.18 260.268 318.594 249.806 318.594 238.562C318.594 227.303 323.188 216.84 331.053 209.213L295.976 154.641C292.664 155.75 289.22 156.375 285.719 156.375C270.44 156.375 257.685 145.863 254.011 131.719ZM285.719 107.062C276.653 107.062 269.281 114.435 269.281 123.5C269.281 132.565 276.653 139.938 285.719 139.938C288.867 139.938 291.85 139.05 294.611 137.283C299.337 134.267 302.156 129.122 302.156 123.5C302.156 114.435 294.784 107.062 285.719 107.062ZM384.344 238.562C384.344 224.969 373.281 213.906 359.688 213.906C354.962 213.906 350.367 215.262 346.365 217.859C339.272 222.404 335.031 230.146 335.031 238.562C335.031 246.979 339.272 254.721 346.414 259.282C350.367 261.863 354.962 263.219 359.688 263.219C373.281 263.219 384.344 252.156 384.344 238.562ZM351.469 460.469C360.534 460.469 367.906 453.097 367.906 444.031C367.906 434.966 360.534 427.594 351.469 427.594C347.935 427.594 344.655 428.67 341.746 430.848C337.546 433.832 335.031 438.755 335.031 444.031C335.031 453.097 342.403 460.469 351.469 460.469ZM96.6875 476.906C101.224 476.906 104.906 473.224 104.906 468.688C104.906 465.918 103.468 463.288 100.961 461.685C99.7613 460.88 98.323 460.469 96.6875 460.469C92.1508 460.469 88.4688 464.151 88.4688 468.688C88.4688 473.224 92.1508 476.906 96.6875 476.906ZM21.8886 460.469H73.5435C76.946 450.927 85.9867 444.031 96.6875 444.031C98.6271 444.031 100.501 444.311 102.326 444.73L160.884 353.625L92.2 246.781H-13.8875L-82.5717 353.625L-33.1687 430.479C-28.4676 428.646 -23.4871 427.594 -18.375 427.594C1.46506 427.594 18.0669 441.738 21.8886 460.469ZM-18.375 493.344C-4.78119 493.344 6.28125 482.281 6.28125 468.688C6.28125 455.094 -4.78119 444.031 -18.375 444.031C-23.1008 444.031 -27.695 445.387 -31.6976 447.984C-38.7904 452.529 -43.0312 460.271 -43.0312 468.688C-43.0312 482.281 -31.9688 493.344 -18.375 493.344Z" fill="white" />
    <path d="M285.719 197.469H219.969V213.906H285.719V197.469Z" fill="white" />
    <path d="M203.531 197.469H170.656V213.906H203.531V197.469Z" fill="white" />
    <path d="M285.719 230.344H170.656V246.781H285.719V230.344Z" fill="white" />
    <path d="M187.094 263.219H170.656V279.656H187.094V263.219Z" fill="white" />
    <path d="M219.969 263.219H203.531V279.656H219.969V263.219Z" fill="white" />
    <path d="M285.719 263.219H236.406V279.656H285.719V263.219Z" fill="white" />
    <path d="M96.6875 312.531H30.9375V328.969H96.6875V312.531Z" fill="white" />
    <path d="M14.5 312.531H-18.375V328.969H14.5V312.531Z" fill="white" />
    <path d="M96.6875 345.406H-18.375V361.844H96.6875V345.406Z" fill="white" />
    <path d="M30.9375 378.281H14.5V394.719H30.9375V378.281Z" fill="white" />
    <path d="M96.6875 378.281H47.375V394.719H96.6875V378.281Z" fill="white" />
</svg>
