<svg id="Layer_1" data-name="Layer 1" xmlns="http://www.w3.org/2000/svg" viewBox="0 0 1024 768"><defs><style>.cls-1,.cls-2,.cls-3{fill:none;}.cls-1,.cls-4{stroke:#000;}.cls-1,.cls-2,.cls-3,.cls-5{stroke-width:6px;}.cls-2,.cls-5{stroke:#8c8989;}.cls-3{stroke:#efd100;}.cls-4{stroke-miterlimit:10;}.cls-5{fill:#8c8989;}.cls-6{font-size:68.6px;font-family:MyriadPro-Regular, Myriad Pro;}</style></defs><title>Artboard 1</title><line class="cls-1" x1="312.46" y1="45.7" x2="709.42" y2="45.7"/><line class="cls-1" x1="312.46" y1="45.7" x2="409.28" y2="241.28"/><line class="cls-1" x1="709.42" y1="45.7" x2="409.28" y2="241.28"/><line class="cls-1" x1="804.3" y1="237.4" x2="736.53" y2="690.52"/><line class="cls-1" x1="339.57" y1="698.26" x2="736.53" y2="690.52"/><line class="cls-1" x1="312.46" y1="45.7" x2="254.36" y2="498.82"/><line class="cls-2" x1="647.45" y1="493.01" x2="709.42" y2="45.7"/><line class="cls-2" x1="736.53" y1="690.52" x2="647.45" y2="493.01"/><line class="cls-2" x1="339.57" y1="698.26" x2="647.45" y2="493.01"/><line class="cls-2" x1="254.36" y1="498.82" x2="647.45" y2="493.01"/><line class="cls-2" x1="736.53" y1="690.52" x2="254.36" y2="498.82"/><line class="cls-1" x1="339.57" y1="698.26" x2="254.36" y2="498.82"/><line class="cls-3" x1="382.38" y1="178.11" x2="457.69" y2="179.31"/><line class="cls-3" x1="487.15" y1="240.51" x2="457.69" y2="179.31"/><line class="cls-1" x1="409.28" y1="241.28" x2="804.3" y2="237.4"/><line class="cls-1" x1="312.46" y1="45.7" x2="804.3" y2="237.4"/><line class="cls-1" x1="804.3" y1="237.4" x2="709.42" y2="45.7"/><line class="cls-3" x1="357.24" y1="606.91" x2="443.31" y2="608.84"/><line class="cls-3" x1="428.68" y1="696.52" x2="443.31" y2="608.84"/><circle class="cls-4" cx="314.44" cy="47.68" r="25.7"/><line class="cls-1" x1="409.28" y1="241.28" x2="339.57" y2="698.26"/><circle class="cls-4" cx="709.42" cy="45.7" r="25.7"/><circle class="cls-4" cx="407.24" cy="241.3" r="25.7"/><circle class="cls-4" cx="804.3" cy="237.4" r="25.7"/><circle class="cls-4" cx="342.03" cy="696.62" r="25.7"/><circle class="cls-4" cx="254.36" cy="498.82" r="25.7"/><circle class="cls-4" cx="735.12" cy="690.55" r="25.7"/><circle class="cls-5" cx="647.45" cy="493.01" r="25.7"/><text class="cls-6" transform="translate(243.43 628.85)">a</text><text class="cls-6" transform="translate(532.43 754.85)">b</text><text class="cls-6" transform="translate(778.43 518.85)">c</text></svg>