<?xml version="1.0" encoding="utf-8"?>
<!-- Generator: Adobe Illustrator 22.1.0, SVG Export Plug-In . SVG Version: 6.00 Build 0)  -->
<svg version="1.1" id="Layer_1" xmlns="http://www.w3.org/2000/svg" xmlns:xlink="http://www.w3.org/1999/xlink" x="0px" y="0px"
	 viewBox="0 0 640 480" style="enable-background:new 0 0 640 480;" xml:space="preserve">
<style type="text/css">
	.st0{fill:#4A4F4E;}
	.st1{fill:#949B9A;}
	.st2{fill:#F93C9F;}
	.st3{fill:#F70886;}
	.st4{fill:#FDB2D9;}
	.st5{fill:#FB75BB;}
	.st6{fill:#FB84C3;}
	.st7{fill:#F94BA7;}
	.st8{fill:none;stroke:#FFFFFF;stroke-miterlimit:10;}
	.st9{fill:#F82B97;}
	.st10{fill:#FB88C5;}
	.st11{fill:#FEDFEF;}
	.st12{fill:#B24F4F;}
	.st13{fill:#FDCBE6;}
	.st14{fill:#FFF5FA;}
	.st15{fill:#FC9FD0;}
	.st16{fill:#FA5CAF;}
	.st17{fill:#F952AA;}
	.st18{fill:#FCADD7;}
	.st19{fill:none;stroke:#FFF5FA;stroke-miterlimit:10;}
	.st20{fill:none;stroke:#F5F7F7;stroke-miterlimit:10;}
	.st21{fill:none;stroke:#FFFAFD;stroke-miterlimit:10;}
	.st22{fill:#F7178D;}
	.st23{fill:#FB7ABE;}
	.st24{fill:#FDCEE7;}
	.st25{fill:#FA66B4;}
	.st26{fill:#FEEBF5;}
	.st27{fill:#FC97CC;}
	.st28{fill:#F946A4;}
	.st29{fill:#FDC1E1;}
	.st30{fill:#F955AC;}
	.st31{fill:#F81C90;}
	.st32{fill:#FA5AAE;}
	.st33{fill:#FC9CCF;}
	.st34{fill:#FDB7DC;}
	.st35{fill:#F8349C;}
	.st36{fill:#FED5EA;}
</style>
<polygon class="st0" points="458.5,338.6 488.7,442.8 320.7,467.9 152,420.2 152.5,418.5 181,356.6 273.5,425.2 397.3,415.9 "/>
<polygon class="st1" points="458.5,338.6 397.3,415.9 273.5,425.2 181,356.6 217.3,325.1 295.7,322.6 394.4,329.9 "/>
<g id="XMLID_3_">
	<g id="XMLID_4_">
		<g>
			<polygon class="st2" points="468.3,134.5 481,179.1 461.7,178.4 			"/>
			<polygon class="st3" points="481,179.1 408.8,286 405.4,280.7 406,280.4 460.4,178.2 461.7,178.4 			"/>
			<polygon class="st4" points="460.4,178.2 443,175.9 468.3,134.5 461.7,178.4 			"/>
			<polygon class="st5" points="468.3,134.5 443,175.9 410.9,167.8 			"/>
			<polygon class="st6" points="460.4,178.2 406,280.4 405.4,280.7 395.9,265.6 396.6,265.2 443,175.9 			"/>
			<polygon class="st7" points="443,175.9 396.6,265.2 395.9,265.6 391.7,259 410.9,167.8 			"/>
		</g>
		<g>
			<line class="st8" x1="391.7" y1="259" x2="410.9" y2="167.8"/>
			<polyline class="st8" points="408.8,286 405.4,280.7 395.9,265.6 391.7,259 			"/>
			<line class="st8" x1="481" y1="179.1" x2="408.8" y2="286"/>
			<polyline class="st8" points="460.4,178.1 460.4,178.2 406,280.4 			"/>
			<line class="st8" x1="443" y1="175.9" x2="396.6" y2="265.2"/>
			<line class="st8" x1="410.9" y1="167.8" x2="443" y2="175.9"/>
			<line class="st8" x1="481" y1="179.1" x2="461.7" y2="178.4"/>
			<polyline class="st8" points="443,175.9 460.4,178.2 461.7,178.4 			"/>
			<line class="st8" x1="468.3" y1="134.5" x2="410.9" y2="167.8"/>
			<line class="st8" x1="481" y1="179.1" x2="468.3" y2="134.5"/>
			<line class="st8" x1="443" y1="175.9" x2="468.3" y2="134.5"/>
			<line class="st8" x1="461.7" y1="178.4" x2="468.3" y2="134.5"/>
		</g>
	</g>
</g>
<path class="st9" d="M406.3,139.1L396.1,330l-0.5,0l-0.4-0.2l-0.1,0.1L405.2,140c0.3-0.2,0.5-0.3,0.8-0.5l-0.3-0.4L406.3,139.1z"/>
<path class="st9" d="M339.9,14l66.3,124.8l-0.4,0.2h0v0l-0.3-0.4c0,0-0.1,0.1-0.4,0.3L340.2,16.8l-0.3-2.7l-0.5,0.1L339.9,14z"/>
<path class="st9" d="M405.8,139.1l0.3,0.4c-0.3,0.2-0.5,0.4-0.8,0.5l0-0.8l0.1,0.1L405.8,139.1L405.8,139.1z"/>
<polygon class="st9" points="405.8,139.1 405.8,139.1 405.3,139.3 405.3,139.2 405.3,139.1 "/>
<path class="st9" d="M405.5,138.7l0.3,0.4l-0.5,0l0,0.2l-0.1-0.3C405.4,138.8,405.5,138.7,405.5,138.7z"/>
<path class="st9" d="M405.1,138.9l0.1,0.3l0,0.8c-39.2,25.1-45.8,29.4-47,30.1c0,2.3-0.2,24.2-1.7,231.8l38.6-72.1l0,0.1l0.5,0
	l0.4,0.2L355.5,406l0-1.6l0.4,0.1l0.2-1l-0.6-0.1c0.1-12.8,1.7-223.7,1.7-233.2l0.3,0.1l0.2-0.5l0.5-0.1l-0.1-0.8
	C363.6,165.5,400.9,141.6,405.1,138.9z"/>
<path class="st10" d="M405.2,140l-10.1,189.8L356.5,402c1.5-207.6,1.7-229.5,1.7-231.8C359.4,169.4,366,165.2,405.2,140z"/>
<path class="st11" d="M340.2,16.8l64.9,122.1c-4.2,2.7-41.5,26.6-47,30.1L340.2,16.8z"/>
<polygon class="st12" points="395.6,330 395.1,330 395.1,329.9 395.2,329.8 "/>
<path class="st9" d="M358.1,169.1l0.1,0.8l-0.5,0.1l0.2-0.5l-0.2-0.1C357.8,169.3,358,169.2,358.1,169.1z"/>
<path class="st9" d="M340.2,16.8l17.9,152.2c-0.2,0.1-0.4,0.2-0.5,0.3l-0.5-0.2l-18-152.9l0.3-0.8L340.2,16.8z"/>
<path class="st9" d="M357.9,169.4l-0.2,0.5l-0.5,0.1l0-0.1v0v0v-0.2l0.2-0.2c0,0,0.1-0.1,0.2-0.1L357.9,169.4z"/>
<path class="st9" d="M357.7,169.9l-0.2,0.5l-0.3-0.1c0-0.2,0-0.3,0-0.3l0,0.1L357.7,169.9z"/>
<path class="st9" d="M357.1,169.1l0.5,0.2c-0.1,0.1-0.2,0.1-0.2,0.1l-0.2,0.2v0.2L357.1,169.1z"/>
<path class="st9" d="M357.2,169.9c0,0,0,0.1,0,0.3l-71.1-29.1l-0.2-0.1l0.4-0.9l70.8,29L357.2,169.9L357.2,169.9L357.2,169.9z"/>
<path class="st13" d="M286.2,141.1l71.1,29.1c-0.1,9.5-1.6,220.3-1.7,233.2L286.1,389L286.2,141.1z"/>
<polygon class="st14" points="339.2,16.2 357.1,169.1 286.3,140.1 "/>
<path class="st12" d="M356.1,403.5l-0.2,1l-0.4-0.1V404c0,0,0-0.2,0-0.6L356.1,403.5z"/>
<path class="st12" d="M355.5,404v0.4l-70.4-14.6v-0.3l0.1,0.1l0.8-0.6l0,0l0.1-0.1l69.4,14.4C355.5,403.8,355.5,404,355.5,404z"/>
<polygon class="st15" points="339.9,14.2 340.2,16.8 339.5,15.4 339.9,14.4 339.4,14.3 "/>
<polygon class="st16" points="339.9,14.4 339.5,15.4 339.4,15.2 339.8,14.6 339.4,14.3 "/>
<polygon class="st16" points="339.8,14.6 339.4,15.2 339,14.5 339.4,14.3 339.4,14.3 "/>
<polygon class="st17" points="339.4,15.2 339.5,15.4 339.2,16.2 339.1,15.5 "/>
<polygon class="st17" points="339.4,14.3 339,14.5 339.4,15.2 339.1,15.5 338.9,14.3 "/>
<polygon class="st15" points="339.4,14.3 338.9,14.3 339.1,15.5 337.4,17.8 339,14.1 "/>
<polygon class="st9" points="339.4,14.3 339,14.1 337.4,17.8 263.1,116.1 262.4,115.3 339,13.9 "/>
<polygon class="st9" points="339.1,15.5 339.2,16.2 286.3,140.1 285.4,139.8 285.5,139.5 337.4,17.8 "/>
<polygon class="st18" points="337.4,17.8 285.5,139.5 263.1,116.1 "/>
<polygon class="st9" points="286.3,140.1 285.9,141.1 285.8,141.3 285.2,140.6 285.2,139.7 285.4,139.8 "/>
<polygon class="st9" points="286.2,141.1 286.1,389 286,389.1 285.1,387.9 285.2,140.6 285.8,141.3 285.9,141.1 "/>
<polygon class="st12" points="286,389.1 286,389.1 285.2,389.7 285.1,389.6 285.1,387.9 "/>
<polygon class="st9" points="263.1,116.1 285.5,139.5 285.4,139.8 285.2,139.7 285.2,140.6 263,117.4 261.9,355.3 261.6,354.9 
	260.9,355.4 262,114.9 262.4,115.3 262.1,115.8 262.9,116.4 "/>
<polygon class="st6" points="263,117.4 285.2,140.6 285.1,387.9 261.9,355.3 "/>
<polygon class="st12" points="285.1,387.9 285.1,389.6 261.8,356.9 261.9,356.9 261.9,355.3 "/>
<polygon class="st9" points="262.4,115.3 263.1,116.1 262.9,116.4 262.1,115.8 "/>
<polygon class="st12" points="261.6,354.9 261.9,355.3 261.9,356.9 261.8,356.9 260.9,355.6 260.9,355.4 "/>
<polygon class="st12" points="260.9,355.6 261.8,356.9 260.9,356.9 "/>
<polygon class="st12" points="260.9,355.4 260.9,355.6 260.8,355.5 "/>
<line class="st19" x1="395.1" y1="329.9" x2="405.2" y2="140"/>
<polyline class="st19" points="405.8,139.1 406.3,139.1 396.1,330 395.6,330 "/>
<line class="st19" x1="405.1" y1="138.9" x2="340.2" y2="16.8"/>
<polyline class="st19" points="339.4,14.3 339.9,14 406.2,138.9 405.8,139.1 "/>
<line class="st19" x1="405.8" y1="139.1" x2="405.8" y2="139.1"/>
<path class="st19" d="M405.1,138.9c0.3-0.2,0.4-0.3,0.4-0.3l0.3,0.4l-0.5,0l0,0.2"/>
<path class="st19" d="M405.3,139.2l0.1,0.1l0.4-0.2h0l0.3,0.4c-0.3,0.2-0.5,0.4-0.8,0.5"/>
<polyline class="st20" points="395.1,329.9 395.2,329.8 395.6,330 "/>
<line class="st19" x1="357.1" y1="169.1" x2="339.2" y2="16.2"/>
<path class="st19" d="M340.2,16.8l17.9,152.2c-0.2,0.1-0.4,0.2-0.5,0.3"/>
<polyline class="st19" points="357.7,169.3 357.9,169.4 357.7,169.9 "/>
<path class="st19" d="M357.1,169.1l0.5,0.2c-0.1,0.1-0.2,0.1-0.2,0.1l-0.2,0.2v0.2"/>
<polyline class="st19" points="357.2,169.9 357.3,170 357.7,169.9 "/>
<path class="st19" d="M355.5,403.4c0.1-12.8,1.7-223.7,1.7-233.2l0.3,0.1l0.2-0.5l0.5-0.1l-0.1-0.8c5.5-3.5,42.8-27.5,47-30.1
	l0.1,0.3l0,0.8c-39.2,25.1-45.8,29.4-47,30.1c0,2.3-0.2,24.2-1.7,231.8l38.6-72.1l0,0.1l0.5,0l0.4,0.2L355.5,406l0-1.6"/>
<polyline class="st20" points="355.5,403.4 356.1,403.5 355.9,404.5 355.5,404.4 "/>
<polyline class="st21" points="339.4,14.3 339.9,14.2 340.2,16.8 339.5,15.4 "/>
<polyline class="st19" points="339.4,14.3 339.9,14.4 339.5,15.4 "/>
<polyline class="st19" points="339.4,14.3 339.4,14.3 339.8,14.6 339.4,15.2 "/>
<line class="st19" x1="337.4" y1="17.8" x2="263.1" y2="116.1"/>
<polyline class="st19" points="262.4,115.3 339,13.9 339.4,14.3 "/>
<polyline class="st19" points="285.5,139.5 337.4,17.8 339.1,15.5 339.2,16.2 286.3,140.1 "/>
<path class="st19" d="M286.3,140.1l70.8,29l0.1,0.7v0v0c0,0,0,0.1,0,0.3l-71.1-29.1"/>
<polyline class="st19" points="285.9,141.1 286.2,141.1 286.1,389 "/>
<line class="st19" x1="285.1" y1="387.9" x2="285.2" y2="140.6"/>
<path class="st20" d="M286,389.1l0.1-0.1l69.4,14.4c0,0.4,0,0.6,0,0.6v0.4l-70.4-14.6v-0.3"/>
<polyline class="st20" points="285.1,387.9 286,389.1 286,389.1 285.2,389.7 285.1,389.6 "/>
<polyline class="st19" points="285.4,139.8 286.3,140.1 285.9,141.1 285.8,141.3 285.2,140.6 "/>
<line class="st19" x1="262.4" y1="115.3" x2="263.1" y2="116.1"/>
<polyline class="st19" points="260.9,355.4 262,114.9 262.4,115.3 262.1,115.8 262.9,116.4 263.1,116.1 285.5,139.5 285.4,139.8 
	285.2,139.7 285.2,140.6 263,117.4 261.9,355.3 "/>
<polyline class="st20" points="260.9,355.4 261.6,354.9 261.9,355.3 "/>
<polygon class="st20" points="261.8,356.9 261.9,356.9 261.9,355.3 285.1,387.9 285.1,389.6 "/>
<polygon class="st20" points="261.8,356.9 260.9,356.9 260.9,355.6 "/>
<polygon class="st20" points="260.9,355.4 260.9,355.6 260.8,355.5 "/>
<g id="XMLID_6_">
	<g id="XMLID_5_">
		<g>
			<polygon class="st22" points="264.3,260.3 265.6,302.7 180.2,160 209.7,147 210.5,146.7 264.2,260.3 			"/>
			<polygon class="st23" points="262.9,215.9 264.3,260.3 264.2,260.3 210.5,146.7 242.7,133.1 262.8,215.9 			"/>
			<polygon class="st2" points="210.5,146.7 209.7,147 197.8,104.1 242.7,133.1 			"/>
			<polygon class="st24" points="197.8,104.1 209.7,147 180.2,160 			"/>
		</g>
		<g>
			<polyline class="st8" points="197.8,104.1 180.2,160 180,160.7 			"/>
			<polyline class="st8" points="265.7,302.8 265.6,302.7 180.2,160 			"/>
			<line class="st8" x1="197.8" y1="104.1" x2="242.7" y2="133.1"/>
			<line class="st8" x1="180.2" y1="160" x2="209.7" y2="147"/>
			<polyline class="st8" points="242.7,133.1 210.5,146.7 209.7,147 			"/>
			<line class="st8" x1="262.8" y1="215.9" x2="242.7" y2="133.1"/>
			<polyline class="st8" points="265.6,303.2 265.6,302.7 264.3,260.3 262.9,215.9 262.8,215 			"/>
			<polyline class="st8" points="210.1,146 210.5,146.7 264.2,260.3 			"/>
			<line class="st8" x1="197.8" y1="104.1" x2="209.7" y2="147"/>
		</g>
	</g>
</g>
<g id="XMLID_7_">
	<g id="XMLID_8_">
		<g>
			<polygon class="st25" points="485.5,257 491.3,294 491.3,294 473.7,293.6 			"/>
			<polygon class="st9" points="473.7,293.6 491.3,294 430.3,386.5 411.3,392.1 472.9,294.3 473.3,293.6 473.3,293.6 			"/>
			<polygon class="st26" points="485.5,257 473.7,293.6 473.3,293.6 473.3,293.6 472.9,294.3 472.8,294.2 469,290.7 464.1,286.2 
				464.1,286.2 454,276.7 			"/>
			<polygon class="st10" points="454,276.7 453.4,277.1 451.4,263.4 485.5,257 			"/>
			<polygon class="st27" points="472.9,294.3 411.3,392.1 389.1,382 389.5,381.2 453.4,277.1 454,276.7 464.1,286.2 464.1,286.2 
				469,290.7 472.8,294.2 			"/>
			<polygon class="st28" points="451.4,263.4 453.4,277.1 389.5,381.2 389.4,381.1 399.5,331.7 			"/>
		</g>
		<g>
			<line class="st8" x1="485.5" y1="257" x2="451.4" y2="263.4"/>
			<polyline class="st8" points="485.5,257 491.3,294 491.4,294.9 			"/>
			<polyline class="st8" points="485.5,257 473.7,293.6 473.5,294.2 			"/>
			<polyline class="st8" points="485.5,257 454,276.7 453.4,277.1 			"/>
			<polyline class="st8" points="453.4,277.1 389.5,381.2 389.1,382 			"/>
			<polyline class="st8" points="473.3,293.6 472.9,294.3 411.3,392.1 			"/>
			<line class="st8" x1="430.3" y1="386.5" x2="491.3" y2="294"/>
			<line class="st8" x1="399.5" y1="331.7" x2="451.4" y2="263.4"/>
			<line class="st8" x1="389.4" y1="381.1" x2="399.5" y2="331.7"/>
			<line class="st8" x1="411.3" y1="392.1" x2="430.3" y2="386.5"/>
			<line class="st8" x1="389.1" y1="382" x2="411.3" y2="392.1"/>
			<line class="st8" x1="451.4" y1="263.4" x2="453.4" y2="277.1"/>
			<polyline class="st8" points="473.3,293.6 473.7,293.6 491.3,294 491.3,294 			"/>
			<line class="st8" x1="473.3" y1="294.7" x2="472.9" y2="294.3"/>
			<polyline class="st8" points="472.9,294.3 472.8,294.2 469,290.7 464.1,286.2 464.1,286.2 454,276.7 			"/>
			<line class="st8" x1="454" y1="276.7" x2="454" y2="276.7"/>
		</g>
	</g>
</g>
<g id="XMLID_16_">
	<g id="XMLID_15_">
		<g>
			<polygon class="st29" points="379.8,249.3 410.9,282.4 382,296.8 			"/>
			<polygon class="st30" points="410.9,282.4 390,379.6 382.2,385 382,296.8 			"/>
			<polygon class="st31" points="382,296.8 382.2,385 361.8,369.1 350.5,280.9 			"/>
			<polygon class="st32" points="379.8,249.3 382,296.8 350.5,280.9 			"/>
		</g>
		<g>
			<line class="st8" x1="379.8" y1="249.3" x2="410.9" y2="282.4"/>
			<line class="st8" x1="390" y1="379.6" x2="410.9" y2="282.4"/>
			<line class="st8" x1="379.8" y1="249.3" x2="350.5" y2="280.9"/>
			<line class="st8" x1="390" y1="379.6" x2="382.2" y2="385"/>
			<line class="st8" x1="382" y1="296.8" x2="382.2" y2="385"/>
			<line class="st8" x1="410.9" y1="282.4" x2="382" y2="296.8"/>
			<line class="st8" x1="379.8" y1="249.3" x2="382" y2="296.8"/>
			<line class="st8" x1="350.5" y1="280.9" x2="382" y2="296.8"/>
			<line class="st8" x1="361.8" y1="369.1" x2="350.5" y2="280.9"/>
			<line class="st8" x1="382.2" y1="385" x2="361.8" y2="369.1"/>
		</g>
	</g>
</g>
<g id="XMLID_9_">
	<g id="XMLID_10_">
		<g>
			<polygon class="st33" points="196.1,239.1 225.1,338.4 219.5,359.4 178.2,246.6 			"/>
			<polygon class="st7" points="178.2,246.6 219.5,359.4 202.4,360.5 149.4,253.4 167.4,258.8 			"/>
			<polygon class="st28" points="196.1,239.1 178.2,246.6 164.5,216.4 			"/>
			<polygon class="st34" points="164.5,216.4 178.2,246.6 167.4,258.8 149.4,253.4 			"/>
		</g>
		<g>
			<line class="st8" x1="164.5" y1="216.4" x2="149.4" y2="253.4"/>
			<line class="st8" x1="196.1" y1="239.1" x2="164.5" y2="216.4"/>
			<line class="st8" x1="178.2" y1="246.6" x2="167.4" y2="258.8"/>
			<line class="st8" x1="196.1" y1="239.1" x2="178.2" y2="246.6"/>
			<line class="st8" x1="149.4" y1="253.4" x2="167.4" y2="258.8"/>
			<line class="st8" x1="219.5" y1="359.4" x2="178.2" y2="246.6"/>
			<line class="st8" x1="196.1" y1="239.1" x2="225.1" y2="338.4"/>
			<line class="st8" x1="219.5" y1="359.4" x2="225.1" y2="338.4"/>
			<line class="st8" x1="202.4" y1="360.5" x2="219.5" y2="359.4"/>
			<line class="st8" x1="149.4" y1="253.4" x2="202.4" y2="360.5"/>
			<line class="st8" x1="164.5" y1="216.4" x2="178.2" y2="246.6"/>
		</g>
	</g>
</g>
<g id="XMLID_12_">
	<g id="XMLID_11_">
		<g>
			<polygon class="st35" points="250.1,262.9 263.7,307.7 258.8,343 237.5,284.1 			"/>
			<polygon class="st32" points="237.5,284.1 258.8,343 255.6,353.1 239.7,347.2 217.4,289.5 			"/>
			<polygon class="st10" points="250.1,262.9 237.5,284.1 227.2,245.4 			"/>
			<polygon class="st13" points="227.2,245.4 237.5,284.1 217.4,289.5 			"/>
		</g>
		<g>
			<line class="st8" x1="227.2" y1="245.4" x2="217.4" y2="289.5"/>
			<line class="st8" x1="237.5" y1="284.1" x2="227.2" y2="245.4"/>
			<line class="st8" x1="250.1" y1="262.9" x2="227.2" y2="245.4"/>
			<line class="st8" x1="217.4" y1="289.5" x2="237.5" y2="284.1"/>
			<line class="st8" x1="250.1" y1="262.9" x2="237.5" y2="284.1"/>
			<line class="st8" x1="258.8" y1="343" x2="237.5" y2="284.1"/>
			<line class="st8" x1="217.4" y1="289.5" x2="239.7" y2="347.2"/>
			<line class="st8" x1="258.8" y1="343" x2="263.7" y2="307.7"/>
			<line class="st8" x1="250.1" y1="262.9" x2="263.7" y2="307.7"/>
			<line class="st8" x1="258.8" y1="343" x2="255.6" y2="353.1"/>
			<line class="st8" x1="239.7" y1="347.2" x2="255.6" y2="353.1"/>
		</g>
	</g>
</g>
<g id="XMLID_14_">
	<g id="XMLID_13_">
		<g>
			<polygon class="st2" points="376.4,277.5 376.4,277.5 376.3,278 376.2,278.4 357.7,279.4 362.9,249.1 			"/>
			<polygon class="st9" points="376.2,278.4 353.1,408 328.5,419.5 357.7,279.4 			"/>
			<polygon class="st36" points="362.9,249.1 357.7,279.4 344.3,274.1 			"/>
			<polygon class="st27" points="362.9,249.1 344.3,274.1 331.6,263.5 			"/>
			<polygon class="st28" points="357.7,279.4 328.5,419.5 309.3,413.3 344.3,274.1 			"/>
			<polygon class="st9" points="344.3,274.1 309.3,413.3 290.1,400.3 331.6,263.5 			"/>
		</g>
		<g>
			<line class="st8" x1="331.6" y1="263.5" x2="362.9" y2="249.1"/>
			<line class="st8" x1="344.3" y1="274.1" x2="362.9" y2="249.1"/>
			<line class="st8" x1="357.7" y1="279.4" x2="362.9" y2="249.1"/>
			<line class="st8" x1="362.9" y1="249.1" x2="376.4" y2="277.5"/>
			<line class="st8" x1="376.4" y1="277.5" x2="376.7" y2="278.3"/>
			<polyline class="st8" points="357.7,279.4 376.2,278.4 376.7,278.3 			"/>
			<line class="st8" x1="331.6" y1="263.5" x2="344.3" y2="274.1"/>
			<line class="st8" x1="357.7" y1="279.4" x2="344.3" y2="274.1"/>
			<line class="st8" x1="309.3" y1="413.3" x2="344.3" y2="274.1"/>
			<line class="st8" x1="328.5" y1="419.5" x2="357.7" y2="279.4"/>
			<line class="st8" x1="376.4" y1="277.2" x2="376.4" y2="277.5"/>
			<line class="st8" x1="376.4" y1="277.5" x2="376.4" y2="277.5"/>
			<polyline class="st8" points="376.4,277.5 376.3,278 376.2,278.4 			"/>
			<line class="st8" x1="376.2" y1="278.4" x2="353.1" y2="408"/>
			<line class="st8" x1="331.6" y1="263.5" x2="290.1" y2="400.3"/>
			<line class="st8" x1="309.3" y1="413.3" x2="328.5" y2="419.5"/>
			<line class="st8" x1="353.1" y1="408" x2="328.5" y2="419.5"/>
			<line class="st8" x1="290.1" y1="400.3" x2="309.3" y2="413.3"/>
		</g>
	</g>
</g>
</svg>
