<svg id="Layer_1" data-name="Layer 1" xmlns="http://www.w3.org/2000/svg" viewBox="0 0 1024 768"><defs><style>.cls-1{font-size:68.6px;font-family:MyriadPro-Regular, Myriad Pro;}.cls-2,.cls-3,.cls-4,.cls-5,.cls-7{fill:none;}.cls-2,.cls-4,.cls-5,.cls-9{stroke:#8c8989;}.cls-2,.cls-3,.cls-4,.cls-6,.cls-7,.cls-9{stroke-width:6px;}.cls-2,.cls-6,.cls-7{opacity:0.94;}.cls-3,.cls-6,.cls-7,.cls-8{stroke:#000;}.cls-5{stroke-width:3px;}.cls-8{stroke-miterlimit:10;}.cls-9{fill:#8c8989;}</style></defs><title>Artboard 1</title><text class="cls-1" transform="translate(470.43 758.85)">b</text><line class="cls-2" x1="567" y1="543" x2="571.19" y2="56.93"/><line class="cls-2" x1="256.24" y1="547.32" x2="573.65" y2="543.03"/><line class="cls-3" x1="331" y1="217" x2="257.93" y2="66.52"/><line class="cls-4" x1="644.01" y1="702.69" x2="567" y2="543"/><line class="cls-5" x1="634.5" y1="685.5" x2="459.79" y2="390.88"/><line class="cls-5" x1="462.89" y1="396.11" x2="329.46" y2="701.01"/><line class="cls-5" x1="459.47" y1="396.11" x2="256.5" y2="547.5"/><line class="cls-5" x1="459.17" y1="389.82" x2="566.5" y2="543.5"/><line class="cls-5" x1="331.5" y1="217.5" x2="461.4" y2="391.89"/><line class="cls-5" x1="462.5" y1="396.5" x2="645.5" y2="211.5"/><line class="cls-5" x1="256.63" y1="61.25" x2="461.4" y2="391.89"/><line class="cls-5" x1="573.92" y1="58.17" x2="461.4" y2="391.89"/><line class="cls-3" x1="331.01" y1="217.16" x2="648.42" y2="212.38"/><line class="cls-3" x1="329.46" y1="700.8" x2="332.81" y2="212.49"/><line class="cls-3" x1="642.34" y1="699.3" x2="645.69" y2="211"/><line class="cls-3" x1="326.75" y1="702.86" x2="644.15" y2="698.07"/><line class="cls-3" x1="646" y1="211" x2="570.48" y2="53.61"/><line class="cls-6" x1="256.51" y1="62.45" x2="573.92" y2="58.17"/><line class="cls-7" x1="256" y1="547" x2="258.31" y2="58.27"/><line class="cls-3" x1="330.16" y1="702.69" x2="256" y2="547"/><circle class="cls-8" cx="643.54" cy="212.8" r="28.46"/><text class="cls-1" transform="translate(657.43 489.85)">c</text><text class="cls-1" transform="translate(246.43 652.85)">a</text><circle class="cls-8" cx="569.54" cy="57.8" r="28.46"/><circle class="cls-8" cx="641.54" cy="697.8" r="28.46"/><circle class="cls-8" cx="330.54" cy="702.8" r="28.46"/><circle class="cls-8" cx="255.54" cy="546.8" r="28.46"/><circle class="cls-8" cx="258.54" cy="62.8" r="28.46"/><circle class="cls-9" cx="570.82" cy="541.18" r="14.82"/><circle class="cls-9" cx="459.82" cy="395.18" r="14.82"/><circle class="cls-8" cx="330.54" cy="215.8" r="28.46"/></svg>