<svg id="Layer_1" data-name="Layer 1" xmlns="http://www.w3.org/2000/svg" viewBox="0 0 1024 768"><defs><style>.cls-1{font-size:60.54px;font-family:MyriadPro-Regular, Myriad Pro;}.cls-2,.cls-3,.cls-5{fill:none;}.cls-2,.cls-6{stroke:#8c8989;}.cls-2{stroke-width:3px;}.cls-3,.cls-4,.cls-5{stroke:#000;}.cls-3,.cls-4{stroke-miterlimit:10;}.cls-3{stroke-width:5px;}.cls-5,.cls-6{stroke-width:6px;}.cls-6{fill:#8c8989;}</style></defs><title>Artboard 1</title><text class="cls-1" transform="translate(215.22 435.87)">c</text><text class="cls-1" transform="translate(266.22 708.87)">a</text><line class="cls-2" x1="259.95" y1="624.81" x2="544.76" y2="624.81"/><line class="cls-2" x1="507.24" y1="624.81" x2="792.05" y2="624.81"/><line class="cls-2" x1="364.56" y1="708.75" x2="687.17" y2="523.01"/><line class="cls-2" x1="402.36" y1="523.01" x2="649.37" y2="708.75"/><line class="cls-2" x1="402.49" y1="82.82" x2="402.36" y2="523.01"/><line class="cls-2" x1="687.31" y1="82.82" x2="687.17" y2="523.01"/><line class="cls-3" x1="402.49" y1="82.82" x2="687.31" y2="82.82"/><line class="cls-3" x1="364.69" y1="268.56" x2="649.51" y2="268.56"/><line class="cls-3" x1="260.08" y1="184.63" x2="544.9" y2="184.63"/><line class="cls-3" x1="507.37" y1="184.63" x2="792.19" y2="184.63"/><line class="cls-3" x1="260.08" y1="184.63" x2="364.69" y2="268.56"/><line class="cls-3" x1="649.51" y1="268.56" x2="792.19" y2="184.63"/><line class="cls-3" x1="402.49" y1="82.82" x2="260.08" y2="184.63"/><line class="cls-3" x1="687.31" y1="82.82" x2="792.19" y2="184.63"/><line class="cls-3" x1="364.69" y1="268.56" x2="687.31" y2="82.82"/><line class="cls-3" x1="402.49" y1="82.82" x2="649.51" y2="268.56"/><circle class="cls-4" cx="526" cy="175.69" r="24.36"/><line class="cls-2" x1="402.36" y1="523.01" x2="687.17" y2="523.01"/><line class="cls-3" x1="364.56" y1="708.75" x2="649.37" y2="708.75"/><line class="cls-3" x1="259.95" y1="624.81" x2="364.56" y2="708.75"/><line class="cls-3" x1="649.37" y1="708.75" x2="792.05" y2="624.81"/><line class="cls-2" x1="402.36" y1="523.01" x2="259.95" y2="624.81"/><line class="cls-2" x1="687.17" y1="523.01" x2="792.05" y2="624.81"/><line class="cls-5" x1="260.08" y1="184.63" x2="259.95" y2="624.81"/><line class="cls-5" x1="364.69" y1="268.56" x2="364.56" y2="708.75"/><line class="cls-5" x1="792.19" y1="184.63" x2="792.05" y2="624.81"/><line class="cls-5" x1="649.51" y1="268.56" x2="649.37" y2="708.75"/><circle class="cls-4" cx="260.08" cy="615.88" r="24.36"/><circle class="cls-4" cx="364.69" cy="708.67" r="24.36"/><circle class="cls-4" cx="649.78" cy="708.51" r="24.36"/><circle class="cls-4" cx="791.64" cy="619.55" r="24.36"/><circle class="cls-4" cx="412.17" cy="75.9" r="24.36"/><circle class="cls-4" cx="680.62" cy="76.34" r="24.36"/><circle class="cls-4" cx="258.92" cy="183.69" r="24.36"/><circle class="cls-4" cx="790.42" cy="183.48" r="24.36"/><circle class="cls-4" cx="364.69" cy="268.56" r="24.36"/><circle class="cls-4" cx="649.37" cy="268.46" r="24.36"/><circle class="cls-6" cx="402.36" cy="523.01" r="22.07"/><circle class="cls-6" cx="687.17" cy="523.01" r="22.07"/><circle class="cls-6" cx="524.29" cy="613.14" r="22.07"/></svg>