<svg id="Layer_1" data-name="Layer 1" xmlns="http://www.w3.org/2000/svg" viewBox="0 0 1024 768"><defs><style>.cls-1{font-size:68.6px;font-family:MyriadPro-Regular, Myriad Pro;}.cls-2,.cls-3,.cls-4,.cls-6,.cls-8{fill:none;}.cls-2,.cls-4,.cls-5,.cls-6{stroke:#8c8989;}.cls-2,.cls-3,.cls-4,.cls-5,.cls-7,.cls-8{stroke-width:6px;}.cls-2,.cls-7,.cls-8{opacity:0.94;}.cls-3,.cls-7,.cls-8,.cls-9{stroke:#000;}.cls-5{fill:#8c8989;}.cls-6{stroke-width:3px;}.cls-9{stroke-miterlimit:10;}</style></defs><title>Artboard 1</title><text class="cls-1" transform="translate(580.43 751.85)">a</text><line class="cls-2" x1="693.87" y1="494.13" x2="698.5" y2="56.93"/><line class="cls-2" x1="259.02" y1="497.32" x2="696.37" y2="493.03"/><line class="cls-3" x1="371.9" y1="278.77" x2="266.85" y2="66.52"/><line class="cls-4" x1="798.84" y1="702.69" x2="693.79" y2="490.45"/><circle class="cls-5" cx="545" cy="390.88" r="28.46"/><line class="cls-6" x1="796.53" y1="699.67" x2="545" y2="390.88"/><line class="cls-6" x1="549.27" y1="396.11" x2="365.41" y2="701.01"/><line class="cls-6" x1="544.56" y1="396.11" x2="262.75" y2="495.47"/><line class="cls-6" x1="544.14" y1="389.82" x2="693.79" y2="490.45"/><line class="cls-6" x1="371.9" y1="278.77" x2="547.21" y2="391.89"/><line class="cls-6" x1="548.11" y1="384.07" x2="801.15" y2="262.48"/><line class="cls-6" x1="265.06" y1="61.25" x2="547.21" y2="391.89"/><line class="cls-6" x1="702.25" y1="58.17" x2="547.21" y2="391.89"/><line class="cls-3" x1="367.55" y1="268" x2="804.9" y2="263.71"/><line class="cls-3" x1="365.41" y1="701.01" x2="370.03" y2="263.82"/><line class="cls-3" x1="796.53" y1="699.67" x2="801.15" y2="262.48"/><line class="cls-3" x1="361.67" y1="702.86" x2="799.03" y2="698.58"/><line class="cls-3" x1="802.57" y1="265.86" x2="697.52" y2="53.61"/><line class="cls-7" x1="264.9" y1="62.45" x2="702.25" y2="58.17"/><line class="cls-8" x1="262.75" y1="495.47" x2="267.38" y2="58.27"/><line class="cls-3" x1="366.38" y1="702.69" x2="261.33" y2="490.45"/><circle class="cls-9" cx="267.32" cy="63.89" r="28.46"/><circle class="cls-9" cx="703.35" cy="55.81" r="28.46"/><circle class="cls-9" cx="262.77" cy="493.36" r="28.46"/><circle class="cls-5" cx="696.55" cy="495.72" r="25.79"/><circle class="cls-9" cx="367.72" cy="705.39" r="28.46"/><circle class="cls-9" cx="796.54" cy="698.05" r="28.46"/><circle class="cls-9" cx="367.64" cy="270.17" r="28.46"/><circle class="cls-9" cx="796.54" cy="263.8" r="28.46"/><text class="cls-1" transform="translate(820.43 500.85)">a</text><text class="cls-1" transform="translate(262.43 628.85)">a</text></svg>