<svg id="Layer_1" data-name="Layer 1" xmlns="http://www.w3.org/2000/svg" viewBox="0 0 1024 768"><defs><style>.cls-1{font-size:68.6px;font-family:MyriadPro-Regular, Myriad Pro;}.cls-2,.cls-3,.cls-4,.cls-6,.cls-8{fill:none;}.cls-2,.cls-4,.cls-5,.cls-6{stroke:#8c8989;}.cls-2,.cls-3,.cls-4,.cls-5,.cls-7,.cls-8{stroke-width:6px;}.cls-2,.cls-7,.cls-8{opacity:0.94;}.cls-3,.cls-7,.cls-8,.cls-9{stroke:#000;}.cls-5{fill:#8c8989;}.cls-6{stroke-width:3px;}.cls-9{stroke-miterlimit:10;}</style></defs><title>Artboard 1</title><text class="cls-1" transform="translate(543.43 761.85)">b</text><line class="cls-2" x1="647.34" y1="496.72" x2="651.35" y2="64.26"/><line class="cls-2" x1="270.41" y1="499.88" x2="649.51" y2="495.63"/><line class="cls-3" x1="368.25" y1="283.69" x2="277.2" y2="73.75"/><line class="cls-4" x1="738.32" y1="703.03" x2="647.27" y2="493.08"/><ellipse class="cls-5" cx="518.3" cy="394.59" rx="24.67" ry="28.15"/><line class="cls-6" x1="736.32" y1="700.04" x2="518.3" y2="394.59"/><line class="cls-6" x1="521.99" y1="399.77" x2="362.63" y2="701.37"/><line class="cls-6" x1="517.92" y1="399.77" x2="273.65" y2="498.05"/><line class="cls-6" x1="517.55" y1="393.54" x2="647.27" y2="493.08"/><line class="cls-6" x1="368.25" y1="283.69" x2="520.22" y2="395.59"/><line class="cls-6" x1="520.99" y1="387.86" x2="740.33" y2="267.58"/><line class="cls-6" x1="275.65" y1="68.53" x2="520.22" y2="395.59"/><line class="cls-6" x1="654.6" y1="65.48" x2="520.22" y2="395.59"/><line class="cls-3" x1="364.48" y1="273.04" x2="743.58" y2="268.8"/><line class="cls-3" x1="362.63" y1="701.37" x2="366.63" y2="268.91"/><line class="cls-3" x1="736.32" y1="700.04" x2="740.33" y2="267.58"/><line class="cls-3" x1="359.39" y1="703.2" x2="738.49" y2="698.96"/><line class="cls-3" x1="741.56" y1="270.92" x2="650.5" y2="60.98"/><line class="cls-7" x1="275.5" y1="69.72" x2="654.6" y2="65.48"/><line class="cls-8" x1="273.65" y1="498.05" x2="277.65" y2="65.59"/><line class="cls-3" x1="363.47" y1="703.03" x2="272.41" y2="493.08"/><ellipse class="cls-9" cx="277.6" cy="71.14" rx="24.67" ry="28.15"/><ellipse class="cls-9" cx="655.55" cy="63.15" rx="24.67" ry="28.15"/><ellipse class="cls-9" cx="273.67" cy="495.97" rx="24.67" ry="28.15"/><ellipse class="cls-5" cx="649.66" cy="498.3" rx="22.35" ry="25.51"/><ellipse class="cls-9" cx="364.63" cy="705.7" rx="24.67" ry="28.15"/><ellipse class="cls-9" cx="736.33" cy="698.44" rx="24.67" ry="28.15"/><ellipse class="cls-9" cx="364.56" cy="275.19" rx="24.67" ry="28.15"/><ellipse class="cls-9" cx="736.33" cy="268.88" rx="24.67" ry="28.15"/><text class="cls-1" transform="translate(755.43 495.85)">c</text><text class="cls-1" transform="translate(262.43 634.85)">a</text></svg>