<svg id="Layer_1" data-name="Layer 1" xmlns="http://www.w3.org/2000/svg" viewBox="0 0 1024 768"><defs><style>.cls-1,.cls-2,.cls-3{fill:none;}.cls-1{stroke:#f7931e;}.cls-1,.cls-2,.cls-3,.cls-5{stroke-width:6px;}.cls-2,.cls-4{stroke:#000;}.cls-3,.cls-5{stroke:#8c8989;}.cls-4{stroke-miterlimit:10;}.cls-5{fill:#8c8989;}.cls-6{font-size:60.54px;}.cls-6,.cls-7,.cls-8,.cls-9{font-family:MyriadPro-Regular, Myriad Pro;}.cls-7{font-size:58.88px;}.cls-8{font-size:53.36px;}.cls-9{font-size:55.2px;}</style></defs><title>Artboard 1</title><path class="cls-1" d="M722,581c0-22.11,32.2-40,72-40"/><path class="cls-1" d="M539,236c0-40.35-58.14-73-130-73"/><path class="cls-1" d="M471,696c0-58-36.23-105-81-105"/><line class="cls-2" x1="347.07" y1="44.64" x2="744.33" y2="44.64"/><line class="cls-2" x1="347.07" y1="44.64" x2="443.96" y2="240.36"/><line class="cls-2" x1="839.28" y1="236.49" x2="771.46" y2="689.94"/><line class="cls-2" x1="374.2" y1="697.7" x2="771.46" y2="689.94"/><line class="cls-2" x1="347.07" y1="44.64" x2="288.93" y2="498.1"/><line class="cls-3" x1="682.31" y1="492.28" x2="744.33" y2="44.64"/><line class="cls-3" x1="771.46" y1="689.94" x2="682.31" y2="492.28"/><line class="cls-3" x1="288.93" y1="498.1" x2="682.31" y2="492.28"/><line class="cls-2" x1="374.2" y1="697.7" x2="288.93" y2="498.1"/><line class="cls-2" x1="443.96" y1="240.36" x2="839.28" y2="236.49"/><line class="cls-2" x1="839.28" y1="236.49" x2="744.33" y2="44.64"/><circle class="cls-4" cx="349.05" cy="46.63" r="25.72"/><line class="cls-2" x1="443.96" y1="240.36" x2="374.2" y2="697.7"/><circle class="cls-4" cx="744.33" cy="44.64" r="25.72"/><circle class="cls-4" cx="441.92" cy="240.38" r="25.72"/><circle class="cls-4" cx="839.28" cy="236.49" r="25.72"/><circle class="cls-4" cx="376.67" cy="696.05" r="25.72"/><circle class="cls-4" cx="288.93" cy="498.1" r="25.72"/><circle class="cls-4" cx="770.05" cy="689.97" r="25.72"/><circle class="cls-5" cx="682.31" cy="492.28" r="25.72"/><text class="cls-6" transform="translate(263.22 620.87)">a</text><text class="cls-6" transform="translate(581.22 752.87)">b</text><text class="cls-6" transform="translate(828.22 491.87)">c</text><text class="cls-6" transform="translate(399.22 669.87) scale(1.34 1)">α</text><text class="cls-7" transform="translate(399.22 670.28) scale(1.32 1)">α</text><text class="cls-8" transform="translate(745 602.66)">β</text><text class="cls-9" transform="translate(461.36 213.2) scale(1.08 1)">γ</text></svg>