<?xml version="1.0" encoding="utf-8"?>
<!-- Generator: Adobe Illustrator 22.1.0, SVG Export Plug-In . SVG Version: 6.00 Build 0)  -->
<svg version="1.1" id="Layer_1" xmlns="http://www.w3.org/2000/svg" xmlns:xlink="http://www.w3.org/1999/xlink" x="0px" y="0px"
	 viewBox="0 0 130 130" style="enable-background:new 0 0 130 130;" xml:space="preserve">
<style type="text/css">
	.st0{fill:#A2BBB8;}
	.st1{fill:#719995;}
	.st2{fill:#8E59DA;}
	.st3{fill:#D2B9FB;}
	.st4{fill:#633EA9;}
	.st5{fill:#AD89F0;}
	.st6{fill:#B391F1;}
	.st7{fill:#9668EC;}
	.st8{fill:none;stroke:#FFFFFF;stroke-miterlimit:10;}
	.st9{fill:#B24F4F;}
	.st10{fill:#3ED7FD;}
	.st11{fill:#DCEDF5;}
	.st12{fill:#9DF1FC;}
	.st13{fill:#F7F9F9;}
	.st14{fill:#AEC8F2;}
	.st15{fill:#73B8DA;}
	.st16{fill:none;stroke:#F5F7F7;stroke-miterlimit:10;}
	.st17{fill:#E48786;}
	.st18{fill:#B55A6F;}
	.st19{fill:#EAD5DD;}
	.st20{fill:#944259;}
	.st21{fill:#ECF6F9;}
	.st22{fill:#4CABDE;}
	.st23{fill:#2184B5;}
	.st24{fill:#64BEFA;}
	.st25{fill:#3793D1;}
	.st26{fill:#87C6EF;}
	.st27{fill:#389EDB;}
	.st28{fill:#BCDAF7;}
	.st29{fill:#2176A4;}
	.st30{fill:#45A6D3;}
	.st31{fill:#D7A1E7;}
	.st32{fill:#C25A8A;}
	.st33{fill:#ECBECB;}
	.st34{fill:#B962A8;}
	.st35{fill:#3485BD;}
	.st36{fill:#56D3E3;}
	.st37{fill:#B1ECF3;}
	.st38{fill:#1FB8D5;}
	.st39{fill:#A742B2;}
	.st40{fill:#A059B9;}
	.st41{fill:#F1DBE9;}
	.st42{fill:#D89FE4;}
	.st43{fill:#C84DC2;}
	.st44{fill:#B53E8C;}
</style>
<g id="XMLID_18_">
	<g id="XMLID_17_">
		<g>
			<polygon class="st0" points="52.1,117 26.3,97.9 36.4,89.1 58.3,88.4 85.9,90.4 103.8,92.9 86.7,114.4 			"/>
			<path class="st1" d="M65.3,129l-45.2-12.8L65.3,129z"/>
			<polygon class="st1" points="65.3,129 20.1,116.2 18.1,115.7 18.3,115.2 26.3,97.9 52.1,117 86.7,114.4 103.8,92.9 112.2,122 			
				"/>
		</g>
		<g>
		</g>
	</g>
</g>
<g id="XMLID_3_">
	<g id="XMLID_4_">
		<g>
			<polygon class="st2" points="110.1,48.3 104.7,48.1 106.5,35.8 			"/>
			<polygon class="st3" points="104.3,48 99.5,47.4 106.5,35.8 104.7,48.1 			"/>
			<polygon class="st4" points="110.1,48.3 89.9,78.2 89,76.7 89.1,76.6 104.3,48 104.7,48.1 			"/>
			<polygon class="st5" points="99.5,47.4 90.5,45.1 106.5,35.8 			"/>
			<polygon class="st6" points="86.5,72.4 99.5,47.4 104.3,48 89.1,76.6 89,76.7 86.3,72.5 			"/>
			<polygon class="st7" points="90.5,45.1 99.5,47.4 86.5,72.4 86.3,72.5 85.1,70.6 			"/>
		</g>
		<g>
			<line class="st8" x1="85.1" y1="70.6" x2="90.5" y2="45.1"/>
			<polyline class="st8" points="89.9,78.2 89,76.7 86.3,72.5 85.1,70.6 			"/>
			<line class="st8" x1="110.1" y1="48.3" x2="89.9" y2="78.2"/>
			<polyline class="st8" points="104.3,48 104.3,48 89.1,76.6 			"/>
			<line class="st8" x1="99.5" y1="47.4" x2="86.5" y2="72.4"/>
			<line class="st8" x1="90.5" y1="45.1" x2="99.5" y2="47.4"/>
			<line class="st8" x1="110.1" y1="48.3" x2="104.7" y2="48.1"/>
			<polyline class="st8" points="99.5,47.4 104.3,48 104.7,48.1 			"/>
			<line class="st8" x1="106.5" y1="35.8" x2="90.5" y2="45.1"/>
			<line class="st8" x1="110.1" y1="48.3" x2="106.5" y2="35.8"/>
			<line class="st8" x1="99.5" y1="47.4" x2="106.5" y2="35.8"/>
			<line class="st8" x1="104.7" y1="48.1" x2="106.5" y2="35.8"/>
		</g>
	</g>
</g>
<path class="st9" d="M89.2,37.1l-2.8,53.3l-0.1,0l-0.1-0.1l0,0l2.8-53c0.1-0.1,0.2-0.1,0.2-0.1l-0.1-0.1L89.2,37.1z"/>
<path class="st9" d="M70.6,2.2L89.2,37l-0.1,0.1h0v0L89,37c0,0,0,0-0.1,0.1L70.8,3L70.6,2.2l-0.1,0.1L70.6,2.2z"/>
<path class="st9" d="M89.1,37.1l0.1,0.1c-0.1,0.1-0.2,0.1-0.2,0.1l0-0.2l0,0L89.1,37.1L89.1,37.1z"/>
<polygon class="st9" points="89.1,37.1 89.1,37.1 88.9,37.2 88.9,37.1 88.9,37.1 "/>
<path class="st9" d="M89,37l0.1,0.1l-0.1,0l0,0l0-0.1C88.9,37,89,37,89,37z"/>
<path class="st9" d="M88.9,37.1L88.9,37.1l0,0.3c-10.9,7-12.8,8.2-13.1,8.4c0,0.6-0.1,6.8-0.5,64.8l10.8-20.2l0,0l0.1,0l0.1,0.1
	L75,111.7l0-0.4l0.1,0l0.1-0.3l-0.2,0c0-3.6,0.5-62.5,0.5-65.1l0.1,0l0.1-0.1l0.1,0l0-0.2C77.3,44.5,87.7,37.8,88.9,37.1z"/>
<path class="st10" d="M88.9,37.4l-2.8,53l-10.8,20.2c0.4-58,0.5-64.1,0.5-64.8C76.1,45.6,78,44.4,88.9,37.4z"/>
<path class="st11" d="M70.8,3l18.1,34.1c-1.2,0.7-11.6,7.4-13.1,8.4L70.8,3z"/>
<polygon class="st9" points="86.2,90.5 86.1,90.4 86.1,90.4 86.1,90.4 "/>
<path class="st9" d="M75.8,45.5l0,0.2l-0.1,0l0.1-0.1l-0.1,0C75.7,45.5,75.7,45.5,75.8,45.5z"/>
<path class="st9" d="M70.8,3l5,42.5c-0.1,0-0.1,0.1-0.1,0.1l-0.2-0.1l-5-42.7l0.1-0.2L70.8,3z"/>
<path class="st9" d="M75.7,45.6l-0.1,0.1l-0.1,0l0,0v0v0v-0.1l0.1,0C75.6,45.6,75.6,45.6,75.7,45.6L75.7,45.6z"/>
<path class="st9" d="M75.6,45.7l-0.1,0.1l-0.1,0c0-0.1,0-0.1,0-0.1l0,0L75.6,45.7z"/>
<path class="st9" d="M75.5,45.5l0.2,0.1c0,0-0.1,0-0.1,0l-0.1,0v0.1L75.5,45.5z"/>
<path class="st9" d="M75.5,45.7C75.5,45.7,75.5,45.8,75.5,45.7l-19.9-8l-0.1,0l0.1-0.3l19.8,8.1L75.5,45.7L75.5,45.7L75.5,45.7z"/>
<path class="st12" d="M55.6,37.7l19.9,8.1c0,2.7-0.5,61.6-0.5,65.1l-19.4-4L55.6,37.7z"/>
<polygon class="st13" points="70.5,2.8 75.5,45.5 55.7,37.4 "/>
<path class="st9" d="M75.2,111l-0.1,0.3l-0.1,0v-0.1c0,0,0-0.1,0-0.2L75.2,111z"/>
<path class="st9" d="M75,111.1v0.1l-19.7-4.1v-0.1l0,0l0.2-0.2l0,0l0,0l19.4,4C75,111.1,75,111.1,75,111.1z"/>
<polygon class="st9" points="70.7,2.2 70.8,3 70.5,2.6 70.7,2.3 70.5,2.2 "/>
<polygon class="st9" points="70.7,2.3 70.5,2.6 70.5,2.5 70.6,2.3 70.5,2.2 "/>
<polygon class="st9" points="70.6,2.3 70.5,2.5 70.4,2.3 70.5,2.2 70.5,2.2 "/>
<polygon class="st9" points="70.5,2.5 70.5,2.6 70.5,2.8 70.4,2.6 "/>
<polygon class="st9" points="70.5,2.2 70.4,2.3 70.5,2.5 70.4,2.6 70.4,2.2 "/>
<polygon class="st9" points="70.5,2.2 70.4,2.2 70.4,2.6 70,3.2 70.4,2.2 "/>
<polygon class="st9" points="70.5,2.2 70.4,2.2 70,3.2 49.2,30.7 49,30.5 70.4,2.1 "/>
<polygon class="st9" points="70.4,2.6 70.5,2.8 55.7,37.4 55.4,37.3 55.5,37.2 70,3.2 "/>
<polygon class="st14" points="70,3.2 55.5,37.2 49.2,30.7 "/>
<polygon class="st9" points="55.7,37.4 55.6,37.7 55.5,37.7 55.4,37.5 55.4,37.3 55.4,37.3 "/>
<polygon class="st9" points="55.6,37.7 55.6,106.9 55.6,107 55.4,106.6 55.4,37.5 55.5,37.7 55.6,37.7 "/>
<polygon class="st9" points="55.6,107 55.6,107 55.4,107.1 55.4,107.1 55.4,106.6 "/>
<polygon class="st9" points="49.2,30.7 55.5,37.2 55.4,37.3 55.4,37.3 55.4,37.5 49.2,31 48.9,97.5 48.8,97.4 48.6,97.6 48.9,30.3 
	49,30.5 48.9,30.6 49.1,30.8 "/>
<polygon class="st15" points="49.2,31 55.4,37.5 55.4,106.6 48.9,97.5 "/>
<polygon class="st9" points="55.4,106.6 55.4,107.1 48.8,98 48.9,98 48.9,97.5 "/>
<polygon class="st9" points="49,30.5 49.2,30.7 49.1,30.8 48.9,30.6 "/>
<polygon class="st9" points="48.8,97.4 48.9,97.5 48.9,98 48.8,98 48.6,97.6 48.6,97.6 "/>
<polygon class="st9" points="48.6,97.6 48.8,98 48.6,98 "/>
<polygon class="st9" points="48.6,97.6 48.6,97.6 48.6,97.6 "/>
<line class="st16" x1="86.1" y1="90.4" x2="88.9" y2="37.4"/>
<polyline class="st16" points="89.1,37.1 89.2,37.1 86.4,90.5 86.2,90.5 "/>
<line class="st16" x1="88.9" y1="37.1" x2="70.8" y2="3"/>
<polyline class="st16" points="70.5,2.2 70.6,2.2 89.2,37 89.1,37.1 "/>
<line class="st16" x1="89.1" y1="37.1" x2="89.1" y2="37.1"/>
<path class="st16" d="M88.9,37.1C88.9,37,89,37,89,37l0.1,0.1L88.9,37.1L88.9,37.1"/>
<path class="st16" d="M88.9,37.1L88.9,37.1l0.1,0h0l0.1,0.1c-0.1,0.1-0.2,0.1-0.2,0.1"/>
<polyline class="st16" points="86.1,90.4 86.1,90.4 86.2,90.5 "/>
<line class="st16" x1="75.5" y1="45.5" x2="70.5" y2="2.8"/>
<path class="st16" d="M70.8,3l5,42.5c-0.1,0-0.1,0.1-0.1,0.1"/>
<polyline class="st16" points="75.6,45.6 75.7,45.6 75.6,45.7 "/>
<path class="st16" d="M75.5,45.5l0.2,0.1c0,0-0.1,0-0.1,0l-0.1,0v0.1"/>
<polyline class="st16" points="75.5,45.7 75.5,45.7 75.6,45.7 "/>
<path class="st16" d="M75,111c0-3.6,0.5-62.5,0.5-65.1l0.1,0l0.1-0.1l0.1,0l0-0.2c1.5-1,12-7.7,13.1-8.4l0,0.1l0,0.2
	c-10.9,7-12.8,8.2-13.1,8.4c0,0.6-0.1,6.8-0.5,64.8l10.8-20.2l0,0l0.1,0l0.1,0.1L75,111.7l0-0.4"/>
<polyline class="st16" points="75,111 75.2,111 75.1,111.3 75,111.2 "/>
<polyline class="st16" points="70.5,2.2 70.7,2.2 70.8,3 70.5,2.6 "/>
<polyline class="st16" points="70.5,2.2 70.7,2.3 70.5,2.6 "/>
<polyline class="st16" points="70.5,2.2 70.5,2.2 70.6,2.3 70.5,2.5 "/>
<line class="st16" x1="70" y1="3.2" x2="49.2" y2="30.7"/>
<polyline class="st16" points="49,30.5 70.4,2.1 70.5,2.2 "/>
<polyline class="st16" points="55.5,37.2 70,3.2 70.4,2.6 70.5,2.8 55.7,37.4 "/>
<path class="st16" d="M55.7,37.4l19.8,8.1l0,0.2v0v0c0,0,0,0,0,0.1l-19.9-8.1"/>
<polyline class="st16" points="55.6,37.7 55.6,37.7 55.6,106.9 "/>
<line class="st16" x1="55.4" y1="106.6" x2="55.4" y2="37.5"/>
<path class="st16" d="M55.6,107L55.6,107l19.4,4c0,0.1,0,0.2,0,0.2v0.1l-19.7-4.1v-0.1"/>
<polyline class="st16" points="55.4,106.6 55.6,107 55.6,107 55.4,107.1 55.4,107.1 "/>
<polyline class="st16" points="55.4,37.3 55.7,37.4 55.6,37.7 55.5,37.7 55.4,37.5 "/>
<line class="st16" x1="49" y1="30.5" x2="49.2" y2="30.7"/>
<polyline class="st16" points="48.6,97.6 48.9,30.3 49,30.5 48.9,30.6 49.1,30.8 49.2,30.7 55.5,37.2 55.4,37.3 55.4,37.3 
	55.4,37.5 49.2,31 48.9,97.5 "/>
<polyline class="st16" points="48.6,97.6 48.8,97.4 48.9,97.5 "/>
<polygon class="st16" points="48.8,98 48.9,98 48.9,97.5 55.4,106.6 55.4,107.1 "/>
<polygon class="st16" points="48.8,98 48.6,98 48.6,97.6 "/>
<polygon class="st16" points="48.6,97.6 48.6,97.6 48.6,97.6 "/>
<g id="XMLID_6_">
	<g id="XMLID_5_">
		<g>
			<polygon class="st17" points="43.5,35.5 49.1,58.6 49.1,58.6 49.5,71 49.5,71 34.5,39.2 			"/>
			<polygon class="st18" points="34.3,39.3 31,27.3 43.5,35.5 34.5,39.2 			"/>
			<polygon class="st19" points="34.3,39.3 26,43 31,27.3 			"/>
			<polygon class="st20" points="49.9,82.8 26,43 34.3,39.3 34.5,39.2 49.5,71 49.5,71 			"/>
		</g>
		<g>
			<polyline class="st8" points="31,27.3 26,43 26,43.1 			"/>
			<polyline class="st8" points="49.9,82.8 49.9,82.8 26,43 			"/>
			<line class="st8" x1="31" y1="27.3" x2="43.5" y2="35.5"/>
			<line class="st8" x1="26" y1="43" x2="34.3" y2="39.3"/>
			<polyline class="st8" points="43.5,35.5 34.5,39.2 34.3,39.3 			"/>
			<line class="st8" x1="49.1" y1="58.6" x2="43.5" y2="35.5"/>
			<polyline class="st8" points="49.9,83 49.9,82.8 49.5,71 49.1,58.6 49.1,58.3 			"/>
			<polyline class="st8" points="34.4,39 34.5,39.2 49.5,71 			"/>
			<line class="st8" x1="31" y1="27.3" x2="34.3" y2="39.3"/>
		</g>
	</g>
</g>
<g id="XMLID_7_">
	<g id="XMLID_8_">
		<g>
			<path class="st21" d="M110.2,73.5l1.1-3.4L110.2,73.5z"/>
			<polygon class="st22" points="111.4,70 113,80.4 113,80.4 108,80.3 109.9,74.6 109.9,74.6 110.2,73.5 			"/>
			<polygon class="st23" points="108,80.3 113,80.4 95.9,106.3 90.6,107.8 107.8,80.5 107.9,80.3 107.9,80.3 			"/>
			<path class="st24" d="M103.9,74.7l-1.2,0.8L103.9,74.7z"/>
			<polygon class="st21" points="102.8,75.8 102.8,75.8 102.5,75.6 102.7,75.4 103.9,74.7 111.4,70 110.2,73.5 109.9,74.6 
				109.9,74.6 108,80.3 107.9,80.3 107.9,80.3 107.8,80.5 107.8,80.4 			"/>
			<polygon class="st24" points="103.9,74.7 102.7,75.4 102.5,75.6 102.4,75.7 101.8,71.9 111.4,70 			"/>
			<polygon class="st25" points="86.7,101.3 84.5,104.8 84.5,104.7 87.3,90.9 101.8,71.9 102.4,75.7 			"/>
			<polygon class="st26" points="107.8,80.5 90.6,107.8 84.4,105 84.5,104.8 86.7,101.3 102.4,75.7 102.5,75.6 102.8,75.8 
				102.8,75.8 107.8,80.4 			"/>
			<path class="st26" d="M86.7,101.3l-2.1,3.5L86.7,101.3z"/>
		</g>
		<g>
			<line class="st8" x1="111.4" y1="70" x2="101.8" y2="71.9"/>
			<polyline class="st8" points="111.4,70 113,80.4 113,80.6 			"/>
			<polyline class="st8" points="110.2,73.5 111.4,70 110.2,73.5 			"/>
			<polyline class="st8" points="110.2,73.5 109.9,74.6 109.9,74.6 108,80.3 			"/>
			<line class="st8" x1="108" y1="80.3" x2="108" y2="80.5"/>
			<polyline class="st8" points="111.4,70 103.9,74.7 102.7,75.4 			"/>
			<line class="st8" x1="102.7" y1="75.4" x2="103.9" y2="74.7"/>
			<line class="st8" x1="102.7" y1="75.4" x2="102.5" y2="75.6"/>
			<line class="st8" x1="102.5" y1="75.6" x2="102.4" y2="75.7"/>
			<polyline class="st8" points="102.4,75.7 86.7,101.3 84.5,104.8 84.4,105 			"/>
			<line class="st8" x1="84.5" y1="104.8" x2="86.7" y2="101.3"/>
			<polyline class="st8" points="107.9,80.3 107.8,80.5 90.6,107.8 			"/>
			<line class="st8" x1="95.9" y1="106.3" x2="113" y2="80.4"/>
			<line class="st8" x1="87.3" y1="90.9" x2="101.8" y2="71.9"/>
			<line class="st8" x1="84.5" y1="104.7" x2="87.3" y2="90.9"/>
			<line class="st8" x1="90.6" y1="107.8" x2="95.9" y2="106.3"/>
			<line class="st8" x1="84.4" y1="105" x2="90.6" y2="107.8"/>
			<line class="st8" x1="101.8" y1="71.9" x2="102.4" y2="75.7"/>
			<polyline class="st8" points="107.9,80.3 108,80.3 113,80.4 113,80.4 			"/>
			<line class="st8" x1="107.9" y1="80.6" x2="107.8" y2="80.5"/>
			<polyline class="st8" points="107.8,80.5 107.8,80.4 102.8,75.8 102.8,75.8 102.5,75.6 			"/>
			<line class="st8" x1="102.5" y1="75.6" x2="102.5" y2="75.6"/>
		</g>
	</g>
</g>
<g id="XMLID_16_">
	<g id="XMLID_15_">
		<g>
			<polygon class="st27" points="82.5,105.8 82.4,81.2 90.5,77.2 84.7,104.3 			"/>
			<polygon class="st28" points="82.4,81.2 81.8,67.9 90.5,77.2 			"/>
			<polygon class="st29" points="73.6,76.7 82.4,81.2 82.5,105.8 76.8,101.4 			"/>
			<polygon class="st30" points="81.8,67.9 82.4,81.2 73.6,76.7 			"/>
		</g>
		<g>
			<line class="st8" x1="81.8" y1="67.9" x2="90.5" y2="77.2"/>
			<line class="st8" x1="84.7" y1="104.3" x2="90.5" y2="77.2"/>
			<line class="st8" x1="81.8" y1="67.9" x2="73.6" y2="76.7"/>
			<line class="st8" x1="84.7" y1="104.3" x2="82.5" y2="105.8"/>
			<line class="st8" x1="82.4" y1="81.2" x2="82.5" y2="105.8"/>
			<line class="st8" x1="90.5" y1="77.2" x2="82.4" y2="81.2"/>
			<line class="st8" x1="81.8" y1="67.9" x2="82.4" y2="81.2"/>
			<line class="st8" x1="73.6" y1="76.7" x2="82.4" y2="81.2"/>
			<line class="st8" x1="76.8" y1="101.4" x2="73.6" y2="76.7"/>
			<line class="st8" x1="82.5" y1="105.8" x2="76.8" y2="101.4"/>
		</g>
	</g>
</g>
<g id="XMLID_9_">
	<g id="XMLID_10_">
		<g>
			<polygon class="st31" points="37,98.7 25.5,67.2 30.5,65.1 38.6,92.8 			"/>
			<polygon class="st32" points="25.5,67.2 21.7,58.7 30.5,65.1 			"/>
			<polygon class="st33" points="22.5,70.6 17.4,69 21.7,58.7 25.5,67.2 			"/>
			<polygon class="st34" points="32.2,99 17.4,69 22.5,70.6 25.5,67.2 37,98.7 			"/>
		</g>
		<g>
			<line class="st8" x1="21.7" y1="58.7" x2="17.4" y2="69"/>
			<line class="st8" x1="30.5" y1="65.1" x2="21.7" y2="58.7"/>
			<line class="st8" x1="25.5" y1="67.2" x2="22.5" y2="70.6"/>
			<line class="st8" x1="30.5" y1="65.1" x2="25.5" y2="67.2"/>
			<line class="st8" x1="17.4" y1="69" x2="22.5" y2="70.6"/>
			<line class="st8" x1="37" y1="98.7" x2="25.5" y2="67.2"/>
			<line class="st8" x1="30.5" y1="65.1" x2="38.6" y2="92.8"/>
			<line class="st8" x1="37" y1="98.7" x2="38.6" y2="92.8"/>
			<line class="st8" x1="32.2" y1="99" x2="37" y2="98.7"/>
			<line class="st8" x1="17.4" y1="69" x2="32.2" y2="99"/>
			<line class="st8" x1="21.7" y1="58.7" x2="25.5" y2="67.2"/>
		</g>
	</g>
</g>
<g id="XMLID_12_">
	<g id="XMLID_11_">
		<g>
			<polygon class="st35" points="49.4,84.2 48,94.1 42,77.6 45.6,71.7 			"/>
			<polygon class="st36" points="45.6,71.7 42,77.6 39.2,66.8 			"/>
			<polygon class="st37" points="42,77.6 36.4,79.1 39.2,66.8 			"/>
			<polygon class="st38" points="42,77.6 48,94.1 47.1,96.9 42.7,95.3 36.4,79.1 			"/>
		</g>
		<g>
			<line class="st8" x1="39.2" y1="66.8" x2="36.4" y2="79.1"/>
			<line class="st8" x1="42" y1="77.6" x2="39.2" y2="66.8"/>
			<line class="st8" x1="45.6" y1="71.7" x2="39.2" y2="66.8"/>
			<line class="st8" x1="36.4" y1="79.1" x2="42" y2="77.6"/>
			<line class="st8" x1="45.6" y1="71.7" x2="42" y2="77.6"/>
			<line class="st8" x1="48" y1="94.1" x2="42" y2="77.6"/>
			<line class="st8" x1="36.4" y1="79.1" x2="42.7" y2="95.3"/>
			<line class="st8" x1="48" y1="94.1" x2="49.4" y2="84.2"/>
			<line class="st8" x1="45.6" y1="71.7" x2="49.4" y2="84.2"/>
			<line class="st8" x1="48" y1="94.1" x2="47.1" y2="96.9"/>
			<line class="st8" x1="42.7" y1="95.3" x2="47.1" y2="96.9"/>
		</g>
	</g>
</g>
<g id="XMLID_14_">
	<g id="XMLID_13_">
		<g>
			<path class="st39" d="M80.8,76l-0.6,3.1L80.8,76z"/>
			<polygon class="st40" points="75.6,76.3 77.1,67.8 80.8,75.8 80.8,75.8 80.8,75.9 80.8,76 			"/>
			<polygon class="st39" points="75.6,76.3 80.8,76 80.2,79.2 74.4,112.3 67.5,115.5 			"/>
			<polygon class="st41" points="75.6,76.3 71.9,74.8 77.1,67.8 			"/>
			<polygon class="st42" points="71.9,74.8 68.3,71.9 77.1,67.8 			"/>
			<polygon class="st43" points="75.6,76.3 67.5,115.5 62.1,113.7 71.9,74.8 			"/>
			<polygon class="st44" points="68.3,71.9 71.9,74.8 62.1,113.7 56.7,110.1 			"/>
		</g>
		<g>
			<line class="st8" x1="68.3" y1="71.9" x2="77.1" y2="67.8"/>
			<line class="st8" x1="71.9" y1="74.8" x2="77.1" y2="67.8"/>
			<line class="st8" x1="75.6" y1="76.3" x2="77.1" y2="67.8"/>
			<line class="st8" x1="77.1" y1="67.8" x2="80.8" y2="75.8"/>
			<line class="st8" x1="80.8" y1="75.8" x2="81" y2="76"/>
			<polyline class="st8" points="75.6,76.3 80.8,76 81,76 			"/>
			<line class="st8" x1="68.3" y1="71.9" x2="71.9" y2="74.8"/>
			<line class="st8" x1="75.6" y1="76.3" x2="71.9" y2="74.8"/>
			<line class="st8" x1="62.1" y1="113.7" x2="71.9" y2="74.8"/>
			<line class="st8" x1="67.5" y1="115.5" x2="75.6" y2="76.3"/>
			<polyline class="st8" points="80.8,76 80.2,79.2 74.4,112.3 			"/>
			<line class="st8" x1="80.9" y1="75.7" x2="80.8" y2="75.8"/>
			<line class="st8" x1="80.8" y1="75.8" x2="80.8" y2="75.8"/>
			<polyline class="st8" points="80.8,75.8 80.8,75.9 80.8,76 			"/>
			<line class="st8" x1="80.2" y1="79.2" x2="80.8" y2="76"/>
			<line class="st8" x1="68.3" y1="71.9" x2="56.7" y2="110.1"/>
			<line class="st8" x1="62.1" y1="113.7" x2="67.5" y2="115.5"/>
			<line class="st8" x1="74.4" y1="112.3" x2="67.5" y2="115.5"/>
			<line class="st8" x1="56.7" y1="110.1" x2="62.1" y2="113.7"/>
		</g>
	</g>
</g>
</svg>
